# xmcd
#
# Track frame offsets: 
#        150
#        12459
#        29862
#        48189
#        58075
#        67486
#        90696
#        98650
#        107844
#        123145
#        145677
#        173910
#        194284
#        217284
#
# Disc length: 3056 seconds
#
# Revision: 0
# Processed by: cddbd v1.5.2PL0 Copyright (c) Steve Scherf et al.
# Submitted via: ExactAudioCopyFreeDBPlugin 1.0
#
DISCID=d40bee0e
DTITLE=ヨタロウ with メトローマンスホテル - Porca Miseria!!
DYEAR=2008
DGENRE=
TTITLE0=Passacaglia
TTITLE1=スリ傷boy
TTITLE2=犬
TTITLE3=Theme from Chameleon Lip
TTITLE4=SonataⅡ (Instrumental)
TTITLE5=愚かなる者に降る雨は
TTITLE6=海老痛
TTITLE7=Balkan Chameleon
TTITLE8=菊珠丸の唄
TTITLE9=散骨の唄
TTITLE10=レニンの三輪車
TTITLE11=El Borracho
TTITLE12=薔薇より赤い心臓の歌
TTITLE13=St.AGNES
EXTD=
EXTT0=
EXTT1=
EXTT2=
EXTT3=
EXTT4=
EXTT5=
EXTT6=
EXTT7=
EXTT8=
EXTT9=
EXTT10=
EXTT11=
EXTT12=
EXTT13=
PLAYORDER=
